M48
;Layer_Color=9474304
;FILE_FORMAT=4:4
METRIC,LZ
;TYPE=PLATED
T1F00S00C0.9000
T2F00S00C1.0200
T3F00S00C1.2000
;TYPE=NON_PLATED
T4F00S00C3.0000
%
T01
X00254Y0018415
X0010795Y0018161
Y0020701
Y0023241
Y0025781
T02
X0015113Y0013335
X0017653
X0020193
X0022733
X0025273
X0027813
X0030353
X0032893
X0035433
X0037973
X0040513
X0043053
X0045593
X0048133
Y0038735
X0045593
X0043053
X0040513
X0037973
X0035433
X0032893
X0030353
X0027813
X0025273
X0022733
X0020193
X0017653
X0015113
X0012573
Y0013335
T03
X0031115Y0017145
Y0019685
Y0022225
Y0024765
Y0027305
Y0029845
Y0032385
Y0034925
X0025273Y0034417
Y0031877
Y0029337
T04
X0051563Y0013755
Y0038265
X0004613
Y0013755
M30
